<svg viewBox="0 0 78 63" fill="none" xmlns="http://www.w3.org/2000/svg">
<path d="M35.1846 14.8242C32.5967 15.4102 30.3018 16.2646 28.2998 17.3877C27.4209 17.876 26.5664 18.4375 25.7363 19.0723C24.9551 19.6582 24.2471 20.3662 23.6123 21.1963C22.9775 21.9775 22.4648 22.8809 22.0742 23.9062C21.6836 24.8828 21.4883 25.957 21.4883 27.1289H36.8691V62.7979H0.833984V38.1152C0.833984 30.6934 1.61523 24.5654 3.17773 19.7314C4.74023 14.8486 6.98633 10.9668 9.91602 8.08594C12.8945 5.20508 16.5078 3.17871 20.7559 2.00684C25.0039 0.834961 29.8135 0.249023 35.1846 0.249023V14.8242ZM75.9805 14.8242C73.3926 15.4102 71.0977 16.2646 69.0957 17.3877C68.2168 17.876 67.3623 18.4375 66.5322 19.0723C65.751 19.6582 65.043 20.3662 64.4082 21.1963C63.7734 21.9775 63.2607 22.8809 62.8701 23.9062C62.4795 24.8828 62.2842 25.957 62.2842 27.1289H77.8115V62.7979H41.6299V38.1152C41.6299 30.6934 42.4111 24.5654 43.9736 19.7314C45.5361 14.8486 47.8066 10.9668 50.7852 8.08594C53.7637 5.20508 57.3525 3.17871 61.5518 2.00684C65.7998 0.834961 70.6094 0.249023 75.9805 0.249023V14.8242Z" fill="url(#paint0_linear_1_91)"/>
<defs>
<linearGradient id="paint0_linear_1_91" x1="46.5" y1="-39" x2="46.5" y2="102.71" gradientUnits="userSpaceOnUse">
<stop stop-color="#0050FF"/>
<stop offset="1" stop-color="#4881FF"/>
</linearGradient>
</defs>
</svg>
